<?xml version="1.0" standalone="no"?>
<!DOCTYPE svg PUBLIC "-//W3C//DTD SVG 20010904//EN"
 "http://www.w3.org/TR/2001/REC-SVG-20010904/DTD/svg10.dtd">
<svg version="1.0" xmlns="http://www.w3.org/2000/svg"
 width="1920.000000pt" height="1920.000000pt" viewBox="0 0 1920.000000 1920.000000"
 preserveAspectRatio="xMidYMid meet">
<metadata>
Created by potrace 1.11, written by Peter Selinger 2001-2013
</metadata>
<g transform="translate(0.000000,1920.000000) scale(0.100000,-0.100000)"
fill="#000000" stroke="none">
<path d="M9325 18529 c-33 -4 -80 -10 -105 -13 -249 -28 -577 -149 -837 -309
-93 -58 -98 -60 -288 -167 -66 -37 -141 -79 -167 -93 -46 -26 -90 -51 -188
-105 -39 -21 -114 -64 -315 -177 -22 -13 -62 -35 -90 -50 -27 -16 -122 -69
-210 -118 -88 -50 -180 -101 -205 -115 -25 -14 -112 -63 -195 -110 -82 -46
-175 -98 -205 -114 -30 -17 -80 -44 -110 -60 -30 -17 -59 -34 -65 -38 -5 -4
-35 -21 -65 -37 -30 -16 -127 -70 -215 -120 -88 -49 -180 -101 -205 -115 -115
-64 -890 -498 -925 -518 -22 -13 -89 -50 -150 -83 -60 -33 -122 -68 -137 -78
-14 -11 -29 -19 -32 -19 -6 0 -53 -32 -201 -135 -24 -16 -90 -69 -147 -116
-358 -300 -601 -628 -751 -1014 -46 -118 -64 -183 -97 -344 l-27 -133 -1
-2477 c-1 -1362 -2 -2546 -2 -2631 0 -85 1 -166 4 -180 2 -14 7 -50 11 -81 3
-31 8 -67 10 -80 3 -13 7 -37 10 -54 51 -264 178 -547 329 -730 51 -62 159
-170 210 -210 22 -16 51 -40 65 -51 14 -12 116 -75 226 -141 307 -184 599
-358 608 -362 5 -1 67 -39 139 -82 71 -43 132 -79 134 -79 2 0 30 -17 61 -37
52 -33 102 -62 213 -125 19 -11 42 -26 51 -34 8 -8 18 -14 21 -14 5 0 297
-171 428 -250 56 -34 837 -499 863 -514 17 -10 176 -104 352 -209 176 -105
329 -196 340 -202 17 -9 202 -119 245 -146 56 -34 348 -206 360 -212 8 -4 27
-15 42 -25 117 -74 328 -194 398 -225 153 -69 425 -155 590 -187 66 -13 210
-35 300 -46 126 -16 502 -9 605 10 11 2 40 7 65 11 25 4 56 9 70 12 113 18
349 101 490 171 105 52 628 353 825 473 17 11 37 22 45 26 8 4 60 34 115 67
55 32 116 68 135 79 19 11 114 66 210 122 96 56 191 112 210 122 19 11 141 82
270 158 129 76 249 146 265 155 17 10 81 47 143 84 62 36 132 77 155 90 23 12
94 54 157 91 63 37 156 91 205 120 350 205 577 338 685 400 69 40 187 109 264
154 76 44 140 81 142 81 2 0 20 12 41 26 21 14 47 30 58 35 11 6 29 15 40 22
11 7 63 37 115 67 52 30 103 60 112 65 9 6 79 46 155 90 108 63 155 97 219
160 157 156 312 369 409 563 51 101 128 292 139 344 3 13 12 53 20 89 27 125
40 237 37 339 -1 36 -3 1231 -5 2655 -1 1425 -6 2610 -10 2635 -4 25 -9 63
-12 85 -8 66 -45 239 -55 258 -6 9 -8 17 -5 17 6 0 -59 193 -80 240 -122 264
-247 446 -422 611 -69 65 -119 101 -223 159 -74 41 -143 80 -154 87 -11 7 -26
15 -34 19 -13 7 -130 73 -236 134 -16 9 -57 32 -90 50 -33 19 -100 57 -150 85
-49 29 -112 65 -140 80 -27 15 -99 55 -160 90 -60 34 -130 73 -155 87 -25 14
-92 52 -150 85 -92 53 -588 334 -678 385 -18 10 -122 68 -230 130 -388 220
-428 242 -487 275 -33 19 -67 38 -75 43 -16 10 -101 58 -210 118 -36 19 -77
43 -92 54 -14 10 -28 18 -31 18 -4 0 -146 80 -422 237 -44 26 -100 57 -125 71
-127 70 -251 143 -302 175 -346 223 -772 382 -1188 443 -117 18 -461 26 -555
13z"/>
<path d="M17420 4377 c-19 -7 -83 -26 -142 -42 -111 -31 -120 -38 -108 -85 6
-23 11 -25 70 -27 36 -1 77 -2 93 -2 l27 -1 0 -763 0 -764 -22 -21 c-18 -16
-38 -21 -90 -24 l-68 -3 0 -47 0 -48 275 0 275 0 0 48 0 47 -57 3 c-42 2 -64
9 -80 24 l-23 21 0 418 0 417 53 24 c139 66 299 73 393 17 16 -10 41 -40 55
-66 l24 -48 3 -379 3 -378 -22 -24 c-16 -17 -34 -24 -58 -24 -70 0 -81 -8 -81
-56 l0 -44 273 0 273 0 0 43 c-1 23 -5 45 -9 48 -5 3 -33 7 -63 8 -39 1 -61 7
-79 22 l-24 21 1 383 c0 398 -5 458 -44 542 -22 48 -76 104 -117 123 -14 7
-35 17 -45 22 -11 6 -56 13 -101 16 -100 6 -175 -15 -331 -93 l-104 -53 0 379
0 379 -57 0 c-32 -1 -74 -6 -93 -13z"/>
<path d="M5604 4303 c-40 -20 -74 -79 -74 -130 0 -73 71 -143 145 -143 75 0
145 70 145 144 0 109 -117 179 -216 129z"/>
<path d="M1410 4180 c0 -41 3 -50 18 -51 110 -7 127 -10 146 -28 21 -20 21
-25 21 -709 0 -644 -1 -691 -18 -709 -9 -11 -32 -21 -50 -22 -17 -1 -45 -4
-62 -6 -16 -1 -36 -3 -42 -4 -9 -1 -13 -18 -13 -52 l0 -51 428 5 c235 2 443 7
462 11 131 27 261 77 318 123 12 10 42 34 66 53 121 98 220 279 255 465 13 65
11 331 -1 387 -33 142 -71 229 -141 325 -97 131 -271 239 -449 279 -123 28
-186 31 -550 33 l-388 2 0 -51z m790 -77 c271 -49 421 -203 481 -493 22 -106
16 -386 -10 -485 -35 -131 -82 -219 -159 -294 -123 -121 -242 -160 -513 -168
l-176 -6 0 732 0 732 151 -2 c83 -2 185 -9 226 -16z"/>
<path d="M9491 4176 c-1 -31 0 -56 1 -56 105 -7 145 -15 163 -31 19 -19 20
-34 20 -705 0 -673 0 -686 -20 -704 -17 -15 -69 -26 -152 -29 -7 -1 -11 -21
-11 -52 l-1 -50 422 4 c232 2 436 6 452 10 212 52 320 120 389 247 65 119 69
309 9 425 -56 108 -182 187 -323 202 -30 3 -57 7 -59 9 -2 2 13 11 35 19 117
46 221 129 257 207 25 52 35 147 25 224 -23 173 -128 268 -353 320 -16 4 -215
9 -441 11 l-411 4 -2 -55z m719 -74 c158 -38 241 -133 241 -277 0 -121 -23
-187 -88 -250 -67 -65 -157 -93 -330 -101 -68 -4 -124 -2 -124 2 -1 5 -3 149
-4 321 l-2 312 31 3 c62 7 232 0 276 -10z m105 -761 c163 -39 247 -155 240
-333 -7 -198 -105 -299 -322 -332 -86 -12 -309 -13 -321 -1 -4 4 -7 154 -8
336 -1 239 2 329 10 329 24 1 121 13 124 15 9 8 232 -4 277 -14z"/>
<path d="M12927 4223 c-9 -14 -5 -83 4 -89 11 -6 52 -12 112 -16 83 -5 77 53
77 -713 -1 -636 -2 -681 -18 -701 -21 -25 -38 -31 -112 -39 -30 -4 -57 -8 -60
-10 -5 -3 -6 -72 -1 -96 0 -4 118 -6 261 -6 257 0 260 0 265 21 2 11 3 35 2
51 -2 29 -4 30 -74 40 -56 8 -78 16 -98 35 l-25 26 2 667 3 668 79 -213 c43
-117 87 -233 97 -258 10 -25 75 -200 145 -390 70 -190 153 -412 183 -495 l56
-150 51 -2 c32 -2 55 2 61 10 5 6 47 111 92 232 82 217 220 583 327 865 30 80
59 154 64 165 4 11 18 47 30 80 43 117 64 170 70 177 10 14 5 -1376 -6 -1395
-8 -15 -27 -19 -90 -23 -43 -3 -80 -6 -80 -7 -3 -3 -6 -60 -5 -85 l1 -22 297
2 297 3 1 48 c1 27 -3 51 -9 52 -6 2 -42 6 -81 9 -40 4 -75 12 -83 20 -12 12
-15 121 -15 706 0 784 -7 723 84 729 25 1 55 4 65 6 10 2 24 4 30 4 6 1 10 23
10 51 l-1 50 -267 0 -268 0 0 -35 c0 -33 -38 -144 -140 -405 -27 -69 -110
-287 -185 -485 -76 -198 -140 -366 -144 -373 -5 -8 -44 85 -100 235 -98 263
-133 356 -146 388 -5 11 -9 22 -9 25 -2 5 -32 85 -96 255 -104 274 -122 325
-123 356 l-2 34 -262 3 c-144 1 -264 -1 -266 -5z"/>
<path d="M16590 3923 c-17 -38 -40 -89 -51 -114 -19 -43 -26 -49 -105 -84
l-84 -38 0 -38 0 -39 79 0 79 0 0 -443 c0 -327 3 -455 13 -487 17 -61 62 -107
123 -125 70 -21 245 -14 364 14 l92 23 0 49 0 50 -37 -7 c-78 -15 -216 -10
-255 10 -45 22 -75 78 -84 156 -5 43 -9 665 -5 743 1 16 17 17 191 17 l190 0
0 55 0 55 -190 0 c-174 0 -190 1 -191 18 -1 9 -1 70 -1 135 l0 117 -48 0 -48
0 -32 -67z"/>
<path d="M3567 3758 c-84 -23 -119 -40 -177 -87 -163 -130 -233 -283 -234
-511 -1 -144 7 -195 45 -290 52 -129 133 -220 257 -287 91 -49 285 -67 410
-38 138 33 311 112 313 144 1 18 1 112 0 123 -1 4 -18 -4 -38 -18 -115 -78
-241 -119 -364 -118 -88 0 -101 2 -164 33 -79 39 -110 66 -159 140 -47 69 -76
166 -83 274 l-6 87 407 0 406 0 1 28 c2 52 2 67 -5 136 -19 200 -148 355 -329
396 -71 15 -202 10 -280 -12z m209 -99 c3 -5 14 -9 25 -9 11 0 42 -22 69 -49
36 -36 53 -63 65 -103 16 -56 26 -153 17 -175 -3 -10 -70 -13 -289 -13 l-284
0 6 38 c26 151 114 270 230 309 37 13 153 14 161 2z"/>
<path d="M4703 3765 c-112 -25 -184 -68 -235 -143 -70 -102 -71 -284 -1 -359
6 -7 13 -17 15 -21 9 -23 116 -91 239 -152 218 -109 255 -140 266 -228 11 -92
-35 -175 -117 -210 -47 -19 -158 -24 -212 -7 -62 19 -115 45 -115 59 0 6 -3
31 -7 56 -3 25 -9 65 -12 90 -3 25 -8 47 -10 49 -3 3 -72 5 -104 2 -13 -1 -16
-24 -15 -162 l0 -162 45 -13 c74 -23 138 -29 285 -28 115 0 151 4 202 21 115
40 184 98 230 193 23 47 27 69 27 145 1 161 -42 213 -274 328 -80 40 -146 75
-148 80 -2 4 -9 7 -16 7 -19 0 -95 69 -112 102 -18 34 -20 112 -5 148 40 98
166 133 303 86 39 -14 71 -26 73 -28 2 -2 6 -39 10 -83 4 -44 11 -84 15 -88 4
-5 33 -9 64 -10 l56 -2 1 37 c0 21 1 74 1 118 0 149 4 137 -49 153 -118 38
-288 47 -400 22z"/>
<path d="M6489 3769 c-65 -15 -139 -49 -192 -89 -111 -83 -157 -189 -150 -339
7 -160 108 -289 265 -340 l38 -12 -38 -52 c-70 -97 -92 -178 -66 -252 11 -32
10 -37 -4 -42 -123 -42 -206 -112 -236 -198 -23 -69 -17 -188 14 -248 65 -130
230 -196 459 -184 119 6 139 9 231 38 230 72 384 244 376 421 -3 68 -31 133
-72 169 -57 50 -188 96 -339 119 -38 6 -81 13 -94 15 -13 2 -43 7 -65 10 -23
4 -50 8 -61 10 -11 2 -24 4 -29 4 -12 1 -1 138 13 154 7 9 43 16 99 20 150 9
270 64 349 160 91 108 105 278 35 415 l-22 42 135 0 135 0 0 55 0 54 -182 3
c-175 4 -186 5 -246 32 -35 15 -73 30 -85 33 -35 9 -229 11 -268 2z m219 -114
c41 -22 67 -47 94 -90 35 -56 47 -116 44 -210 -7 -204 -140 -320 -309 -271
-64 19 -109 61 -145 135 -24 50 -26 67 -26 156 1 105 18 165 59 216 30 37 78
70 116 79 46 11 135 3 167 -15z m-103 -1050 c17 -3 53 -10 80 -15 28 -5 66
-12 85 -15 71 -11 161 -47 189 -76 21 -20 32 -44 37 -76 24 -163 -123 -290
-346 -298 -131 -4 -229 29 -298 102 -105 112 -65 289 83 367 50 26 70 28 170
11z"/>
<path d="M8030 3756 c-36 -13 -99 -41 -140 -62 -41 -21 -87 -44 -103 -51 l-28
-12 2 52 c2 80 4 77 -52 77 -34 0 -102 -16 -196 -46 l-144 -45 3 -40 2 -39 88
0 88 0 1 -62 c0 -35 0 -238 0 -451 l0 -388 -23 -19 c-13 -11 -40 -20 -60 -21
-21 -1 -42 -3 -48 -4 -5 -1 -19 -3 -29 -4 -16 -1 -19 -9 -19 -46 l0 -45 274 0
c212 0 274 3 275 13 0 6 2 25 3 40 2 34 -12 43 -74 46 -29 2 -53 10 -67 24
l-23 20 0 414 0 413 28 13 c15 6 29 15 32 19 12 16 169 51 226 50 132 -1 202
-44 230 -139 13 -45 16 -116 16 -410 l1 -355 -24 -23 c-22 -21 -40 -25 -136
-35 -2 0 -3 -20 -3 -45 l0 -45 274 0 275 0 -1 40 c0 22 -5 43 -12 47 -6 4 -36
9 -66 11 -38 2 -61 9 -77 24 -22 20 -22 23 -25 442 -4 455 -3 446 -61 541 -68
111 -252 156 -407 101z"/>
<path d="M15505 3765 c-120 -25 -210 -70 -264 -132 -43 -48 -60 -94 -55 -149
4 -58 21 -65 144 -62 l105 3 0 97 c0 53 5 102 10 107 20 20 121 39 195 36 153
-4 207 -69 212 -257 1 -48 0 -90 -4 -93 -3 -3 -57 -19 -119 -36 -303 -81 -465
-149 -532 -224 -39 -44 -69 -125 -71 -193 -6 -211 131 -343 343 -330 95 6 180
36 296 103 l90 52 14 -68 13 -69 179 0 179 0 0 45 c0 25 -3 45 -7 46 -5 0 -35
3 -68 5 -106 8 -99 -20 -101 447 -1 221 -4 419 -7 440 -16 101 -88 190 -179
222 -66 23 -284 29 -373 10z m346 -701 c0 -82 0 -182 0 -221 l-1 -73 -60 -30
c-164 -83 -281 -98 -358 -47 -104 68 -112 249 -16 341 26 25 150 92 201 109
89 31 229 74 231 72 2 -2 3 -70 3 -151z"/>
<path d="M5585 3738 c-33 -11 -94 -30 -134 -42 -80 -24 -77 -20 -72 -91 1 -11
18 -14 86 -12 l85 2 0 -451 0 -451 -22 -20 c-16 -14 -42 -22 -81 -26 -32 -3
-60 -7 -62 -9 -4 -4 -8 -38 -6 -65 l1 -23 280 0 280 0 0 45 c0 36 -4 45 -17
47 -10 0 -22 2 -28 3 -5 2 -27 3 -47 4 -23 1 -46 9 -61 24 l-24 22 0 530 0
530 -59 2 c-37 1 -82 -6 -119 -19z"/>
<path d="M10919 3751 c-2 -11 0 -84 3 -86 3 -3 100 -14 130 -15 11 0 25 -23
43 -72 15 -40 36 -92 46 -115 11 -23 19 -45 19 -48 0 -4 20 -57 44 -118 25
-62 99 -252 165 -424 l120 -312 -25 -63 c-40 -98 -83 -178 -130 -245 l-44 -62
-38 13 c-52 19 -164 65 -183 76 -12 6 -23 2 -41 -18 -95 -105 -43 -236 100
-249 148 -13 263 77 370 291 31 63 250 586 452 1081 83 203 109 259 121 260 8
1 40 5 72 9 59 8 60 8 60 61 0 43 7 42 -225 41 l-222 -1 -2 -43 c-2 -49 0 -51
75 -55 74 -5 86 -23 62 -86 -85 -217 -284 -708 -291 -714 -4 -5 -13 8 -20 30
-7 21 -15 43 -19 48 -3 6 -6 15 -8 20 -1 6 -58 155 -127 333 -108 278 -124
325 -113 342 6 11 14 21 17 21 7 2 69 7 103 8 26 1 27 3 27 49 l0 49 -270 0
c-148 0 -271 -3 -271 -6z"/>
<path d="M10385 1855 c-91 -25 -147 -56 -205 -114 -94 -92 -131 -181 -132
-314 -1 -115 34 -205 109 -281 40 -41 123 -89 177 -103 44 -12 196 -10 249 2
86 20 168 61 161 79 -8 20 -2 20 -60 -6 -27 -12 -51 -23 -54 -23 -3 -1 -22 -6
-43 -13 -39 -11 -181 -10 -225 1 -115 30 -209 135 -239 267 -6 23 -4 152 2
180 22 107 105 208 213 262 61 30 75 33 162 33 78 0 103 -4 141 -22 100 -50
151 -131 152 -242 0 -36 -5 -85 -12 -108 -14 -52 -68 -130 -102 -151 -29 -17
-74 -11 -82 11 -5 15 16 130 57 300 l13 57 -26 0 c-15 0 -32 -5 -38 -11 -8 -8
-17 -8 -30 -1 -31 17 -133 8 -178 -15 -90 -47 -146 -146 -141 -252 2 -74 22
-113 67 -137 52 -26 112 -12 171 43 l26 25 6 -30 c16 -72 131 -66 211 13 53
52 70 79 91 150 30 105 6 237 -57 309 -30 35 -93 72 -150 89 -61 18 -175 19
-234 2z m161 -257 l20 -32 -21 -98 c-12 -54 -20 -98 -17 -98 16 0 -54 -59 -77
-66 -41 -12 -44 -11 -73 5 -83 46 -37 262 66 307 51 22 79 17 102 -18z"/>
<path d="M7225 1851 c-91 -23 -144 -81 -152 -164 -9 -96 16 -125 179 -206 126
-63 153 -91 152 -152 -2 -71 -58 -109 -156 -105 -83 3 -118 18 -119 51 -1 14
-3 34 -4 45 -1 11 -3 28 -4 38 -1 12 -10 17 -31 17 l-31 1 3 -90 3 -90 47 -12
c66 -16 184 -15 238 3 119 40 178 147 136 247 -20 47 -76 89 -175 130 -47 20
-93 42 -102 49 -66 51 -56 153 19 190 15 8 51 14 80 15 67 0 100 -25 105 -80
4 -44 7 -47 36 -53 18 -3 21 1 22 33 2 51 -1 115 -5 119 -15 15 -197 26 -241
14z"/>
<path d="M7855 1850 c-98 -24 -170 -82 -216 -176 -25 -50 -31 -77 -34 -138 -5
-155 67 -276 200 -340 53 -25 200 -30 284 -9 l60 15 0 79 0 79 -27 0 c-25 0
-28 -5 -42 -62 -14 -58 -17 -63 -50 -71 -50 -13 -140 -3 -187 22 -67 34 -113
102 -129 191 -23 129 8 247 81 314 55 51 168 70 237 42 43 -19 44 -20 52 -70
8 -47 10 -50 41 -52 25 -1 25 1 25 77 l0 77 -32 8 c-18 4 -40 9 -48 12 -30 7
-186 9 -215 2z"/>
<path d="M9286 1728 c-27 -73 -55 -146 -62 -163 -7 -16 -29 -75 -49 -130 -66
-179 -77 -205 -89 -207 -6 0 -18 -1 -26 -2 -8 -1 -16 -11 -18 -23 -3 -23 -1
-23 97 -23 94 0 101 1 101 20 0 18 -22 27 -54 21 -24 -5 -20 28 12 115 l35 94
119 0 c104 0 119 -2 125 -17 3 -10 19 -51 35 -92 28 -74 30 -104 6 -100 -33 4
-48 -2 -48 -21 0 -19 7 -20 115 -20 105 0 115 2 115 19 0 12 -11 21 -31 27
-23 7 -34 18 -44 44 -7 19 -33 89 -58 155 -26 66 -73 190 -106 275 l-59 155
-33 3 -34 3 -49 -133z m140 -185 c13 -34 24 -64 24 -67 0 -3 -45 -6 -99 -6
l-99 0 44 126 c24 69 47 130 50 136 4 6 18 -20 31 -58 14 -38 36 -97 49 -131z"/>
<path d="M8220 1830 c0 -15 7 -20 29 -20 16 0 33 -6 39 -13 7 -8 11 -107 11
-285 0 -258 -1 -272 -19 -282 -11 -6 -23 -10 -27 -9 -22 4 -33 -3 -33 -21 0
-19 7 -20 105 -20 98 0 105 1 105 20 0 11 -3 20 -7 21 -33 3 -58 11 -64 20 -4
6 -7 131 -6 278 0 261 0 265 17 226 14 -33 147 -389 195 -525 9 -25 20 -36 37
-38 20 -2 26 6 52 75 54 146 168 448 181 478 7 17 15 37 18 45 3 8 5 -113 4
-270 -2 -245 -4 -285 -17 -286 -8 -1 -25 -2 -37 -3 -14 -1 -20 -7 -19 -18 3
-16 16 -18 121 -18 105 0 118 2 121 18 1 12 -5 17 -21 17 -57 0 -55 -12 -55
296 0 156 3 284 8 285 24 3 67 11 70 13 1 2 0 11 -4 20 -5 13 -23 16 -108 16
l-102 0 -12 -47 c-7 -26 -19 -61 -27 -78 -24 -55 -137 -350 -142 -372 -8 -35
-16 -28 -39 35 -12 31 -54 144 -93 250 -40 106 -69 197 -66 202 4 6 -35 10
-104 10 -104 0 -111 -1 -111 -20z"/>
<path d="M10940 1830 c0 -15 7 -20 29 -20 16 0 33 -6 39 -13 7 -8 11 -107 11
-281 0 -278 -2 -290 -41 -292 -35 -2 -38 -4 -38 -24 0 -19 7 -20 105 -20 98 0
105 1 105 20 0 11 -3 20 -7 21 -17 1 -45 8 -57 12 -10 4 -13 66 -13 277 0 149
1 269 3 267 3 -3 127 -334 203 -542 15 -39 24 -51 43 -53 21 -3 27 3 41 45 17
51 131 354 146 388 5 11 22 56 39 100 l31 80 0 -282 1 -281 -37 -9 c-22 -5
-37 -15 -39 -26 -2 -15 10 -17 121 -17 103 0 123 2 121 15 -3 20 -7 23 -41 28
l-30 4 0 288 0 289 28 1 c30 2 40 9 43 30 2 12 -17 15 -107 15 -89 0 -109 -3
-109 -15 0 -13 -78 -234 -100 -280 -21 -48 -80 -203 -80 -214 0 -36 -37 33
-56 104 -3 9 -51 138 -111 295 -14 36 -28 75 -30 88 -5 21 -10 22 -109 22 -97
0 -104 -1 -104 -20z"/>
<path d="M11806 1835 c-3 -10 1 -18 12 -21 65 -21 60 -2 60 -233 1 -115 4
-227 8 -248 18 -104 105 -161 244 -161 104 0 184 35 222 95 22 36 23 48 28
280 3 133 8 244 12 248 6 6 31 13 56 14 6 1 12 10 12 21 0 19 -7 20 -105 20
-98 0 -105 -1 -105 -20 0 -11 6 -21 13 -22 6 0 17 -2 23 -2 6 -1 18 -7 26 -14
13 -10 15 -47 14 -225 -1 -189 -4 -216 -21 -251 -29 -58 -62 -77 -138 -83 -54
-5 -73 -2 -110 16 -76 37 -81 59 -85 314 -3 218 1 250 32 246 32 -4 46 3 46
21 0 19 -7 20 -119 20 -98 0 -120 -3 -125 -15z"/>
</g>
</svg>
